# Blender v2.81 (sub 16) OBJ File: '2 Table.blend'
# www.blender.org
mtllib Table.mtl
o Circle
v -9.300000 19.000000 7.500000
v -9.300000 19.000000 6.500000
v -10.500000 19.000000 6.300000
v -9.500000 19.000000 6.300000
v -9.192153 17.000000 7.392153
v -9.300000 17.107847 7.500000
v -9.192153 17.000000 6.607847
v -9.300000 17.107847 6.500000
v -10.392153 17.000000 6.192153
v -10.500000 17.107847 6.300000
v -9.607847 17.000000 6.192153
v -9.500000 17.107847 6.300000
v -10.905513 0.000000 7.620295
v -11.013360 0.000000 7.512448
v -9.013360 0.000000 7.512448
v -9.121207 0.000000 7.620295
v -11.013360 0.000000 6.507019
v -10.905513 0.000000 6.399172
v -9.121207 0.000000 6.399172
v -9.013360 0.000000 6.507019
v -10.905513 19.000000 6.399172
v -11.013360 19.000000 6.507019
v -11.013360 19.000000 7.512448
v -10.905513 19.000000 7.620295
v -9.121207 19.000000 7.620295
v -9.013360 19.000000 7.512448
v -9.013360 19.000000 6.507019
v -9.121207 19.000000 6.399172
v 9.300000 19.000000 7.500000
v 9.300000 19.000000 6.500000
v 9.300000 19.000000 7.500000
v 9.300000 19.000000 6.500000
v 10.500000 19.000000 6.300000
v 9.500000 19.000000 6.300000
v 9.192153 17.000000 7.392153
v 9.300000 17.107847 7.500000
v 9.192153 17.000000 6.607847
v 9.300000 17.107847 6.500000
v 9.300000 17.107847 7.500000
v 9.300000 17.000000 7.392153
v 9.300000 17.000000 6.607847
v 9.300000 17.107847 6.500000
v 10.392153 17.000000 6.192153
v 10.500000 17.107847 6.300000
v 9.607847 17.000000 6.192153
v 9.500000 17.107847 6.300000
v 10.905513 0.000000 7.620295
v 11.013360 0.000000 7.512448
v 9.013360 0.000000 7.512448
v 9.121207 0.000000 7.620295
v 11.013360 0.000000 6.507019
v 10.905513 0.000000 6.399172
v 9.121207 0.000000 6.399172
v 9.013360 0.000000 6.507019
v 10.905513 19.000000 6.399172
v 11.013360 19.000000 6.507019
v 11.013360 19.000000 7.512448
v 10.905513 19.000000 7.620295
v 9.121207 19.000000 7.620295
v 9.013360 19.000000 7.512448
v 9.013360 19.000000 6.507019
v 9.121207 19.000000 6.399172
v -9.300000 19.000000 -7.500000
v -9.300000 19.000000 -6.500000
v -10.500000 19.000000 7.000000
v -9.500000 19.000000 7.000000
v -10.500000 19.000000 -6.600000
v -9.500000 19.000000 -6.600000
v -9.192153 17.000000 -7.392153
v -9.300000 17.107847 -7.500000
v -9.192153 17.000000 -6.607847
v -9.300000 17.107847 -6.500000
v -10.392153 17.000000 7.000000
v -10.500000 17.107847 7.000000
v -9.500000 17.107847 7.000000
v -9.607847 17.000000 7.000000
v -10.392153 17.000000 -6.492153
v -10.500000 17.107847 -6.600000
v -9.607847 17.000000 -6.492153
v -9.500000 17.107847 -6.600000
v -10.905513 0.000000 -7.620295
v -11.013360 0.000000 -7.512448
v -9.013360 0.000000 -7.512448
v -9.121207 0.000000 -7.620295
v -11.013360 0.000000 -6.507019
v -10.905513 0.000000 -6.399172
v -9.121207 0.000000 -6.399172
v -9.013360 0.000000 -6.507019
v -10.905513 19.000000 -6.399172
v -11.013360 19.000000 -6.507019
v -11.013360 19.000000 -7.512448
v -10.905513 19.000000 -7.620295
v -9.121207 19.000000 -7.620295
v -9.013360 19.000000 -7.512448
v -9.013360 19.000000 -6.507019
v -9.121207 19.000000 -6.399172
v 9.300000 19.000000 -7.500000
v 9.300000 19.000000 -6.500000
v -10.000000 19.000000 -7.500000
v -10.000000 19.000000 -6.500000
v 10.500000 19.000000 -7.000000
v 9.500000 19.000000 -7.000000
v 10.500000 19.000000 -6.300000
v 9.500000 19.000000 -6.300000
v 9.192153 17.000000 -7.392153
v 9.300000 17.107847 -7.500000
v 9.192153 17.000000 -6.607847
v 9.300000 17.107847 -6.500000
v -10.000000 17.107847 -7.500000
v -10.000000 17.000000 -7.392153
v -10.000000 17.000000 -6.607847
v -10.000000 17.107847 -6.500000
v 10.392153 17.000000 -7.000000
v 10.500000 17.107847 -7.000000
v 9.500000 17.107847 -7.000000
v 9.607847 17.000000 -7.000000
v 10.392153 17.000000 -6.192153
v 10.500000 17.107847 -6.300000
v 9.607847 17.000000 -6.192153
v 9.500000 17.107847 -6.300000
v 10.905513 0.000000 -7.620295
v 11.013360 0.000000 -7.512448
v 9.013360 0.000000 -7.512448
v 9.121207 0.000000 -7.620295
v 11.013360 0.000000 -6.507019
v 10.905513 0.000000 -6.399172
v 9.121207 0.000000 -6.399172
v 9.013360 0.000000 -6.507019
v 10.905513 19.000000 -6.399172
v 11.013360 19.000000 -6.507019
v 11.013360 19.000000 -7.512448
v 10.905513 19.000000 -7.620295
v 9.121207 19.000000 -7.620295
v 9.013360 19.000000 -7.512448
v 9.013360 19.000000 -6.507019
v 9.121207 19.000000 -6.399172
v -12.197659 19.000000 9.895987
v -12.218349 19.104013 10.000000
v -12.895987 19.000000 9.197659
v -13.000000 19.104013 9.218349
v -12.691453 19.000000 9.691453
v -12.771061 19.104013 9.771061
v -12.895987 20.000000 9.197659
v -13.000000 19.895987 9.218349
v -12.197659 20.000000 9.895987
v -12.218349 19.895987 10.000000
v -12.691453 20.000000 9.691453
v -12.771061 19.895987 9.771061
v 12.197659 19.000000 9.895987
v 12.218349 19.104013 10.000000
v 12.895987 19.000000 9.197659
v 13.000000 19.104013 9.218349
v 12.691453 19.000000 9.691453
v 12.771061 19.104013 9.771061
v 12.895987 20.000000 9.197659
v 13.000000 19.895987 9.218349
v 12.197659 20.000000 9.895987
v 12.218349 19.895987 10.000000
v 12.691453 20.000000 9.691453
v 12.771061 19.895987 9.771061
v -12.197659 19.000000 -9.895987
v -12.218349 19.104013 -10.000000
v -12.895987 19.000000 -9.197659
v -13.000000 19.104013 -9.218349
v -12.691453 19.000000 -9.691453
v -12.771061 19.104013 -9.771061
v -12.895987 20.000000 -9.197659
v -13.000000 19.895987 -9.218349
v -12.197659 20.000000 -9.895987
v -12.218349 19.895987 -10.000000
v -12.691453 20.000000 -9.691453
v -12.771061 19.895987 -9.771061
v 12.197659 19.000000 -9.895987
v 12.218349 19.104013 -10.000000
v 12.895987 19.000000 -9.197659
v 13.000000 19.104013 -9.218349
v 12.691453 19.000000 -9.691453
v 12.771061 19.104013 -9.771061
v 12.895987 20.000000 -9.197659
v 13.000000 19.895987 -9.218349
v 12.197659 20.000000 -9.895987
v 12.218349 19.895987 -10.000000
v 12.691453 20.000000 -9.691453
v 12.771061 19.895987 -9.771061
vt 0.569584 0.578940
vt 0.569584 0.649696
vt 0.420035 0.649696
vt 0.420035 0.578940
vt 0.420035 0.578940
vt 0.420035 0.649696
vt 0.569584 0.649696
vt 0.569584 0.578940
vt 0.424903 0.647438
vt 0.424903 0.635006
vt 0.431474 0.635006
vt 0.431474 0.647438
vt 0.403899 0.475218
vt 0.403899 0.475218
vt 0.403899 0.628511
vt 0.403899 0.628511
vt 0.404769 0.475218
vt 0.419165 0.475218
vt 0.419165 0.628511
vt 0.404769 0.628511
vt 0.420035 0.628511
vt 0.420035 0.628511
vt 0.419165 0.628511
vt 0.404769 0.628511
vt 0.420035 0.475218
vt 0.420035 0.475218
vt 0.419165 0.475218
vt 0.404769 0.475218
vt 0.420902 0.574907
vt 0.420902 0.574907
vt 0.569584 0.574907
vt 0.569584 0.574907
vt 0.430765 0.648147
vt 0.425612 0.648147
vt 0.572059 0.574907
vt 0.578365 0.574907
vt 0.578365 0.574907
vt 0.572059 0.574907
vt 0.513570 0.636895
vt 0.520140 0.636895
vt 0.520140 0.645686
vt 0.513570 0.645686
vt 0.579232 0.578940
vt 0.579232 0.578940
vt 0.579232 0.649696
vt 0.579232 0.649696
vt 0.571192 0.578940
vt 0.571192 0.649696
vt 0.581612 0.475218
vt 0.581612 0.628511
vt 0.581612 0.628511
vt 0.581612 0.475218
vt 0.571192 0.578940
vt 0.571192 0.649696
vt 0.580742 0.475218
vt 0.580742 0.628511
vt 0.566346 0.628511
vt 0.566346 0.475218
vt 0.580742 0.628511
vt 0.566346 0.628511
vt 0.565476 0.628511
vt 0.565476 0.628511
vt 0.565476 0.475218
vt 0.565476 0.475218
vt 0.566346 0.475218
vt 0.580742 0.475218
vt 0.519431 0.635893
vt 0.514278 0.635893
vt 0.417560 0.574907
vt 0.411254 0.574907
vt 0.411254 0.574907
vt 0.417560 0.574907
vt 0.441563 0.636008
vt 0.448134 0.636008
vt 0.448134 0.644799
vt 0.441563 0.644799
vt 0.410386 0.578940
vt 0.410386 0.578940
vt 0.410386 0.649696
vt 0.410386 0.649696
vt 0.418427 0.578940
vt 0.418427 0.649696
vt 0.403899 0.475218
vt 0.403899 0.628511
vt 0.403899 0.628511
vt 0.403899 0.475218
vt 0.418427 0.578940
vt 0.418427 0.649696
vt 0.404769 0.475218
vt 0.404769 0.628511
vt 0.419165 0.628511
vt 0.419165 0.475218
vt 0.404769 0.628511
vt 0.419165 0.628511
vt 0.420035 0.628511
vt 0.420035 0.628511
vt 0.420035 0.475218
vt 0.420035 0.475218
vt 0.419165 0.475218
vt 0.404769 0.475218
vt 0.447425 0.635006
vt 0.442272 0.635006
vt 0.414407 0.578940
vt 0.414407 0.649696
vt 0.569584 0.649696
vt 0.569584 0.578940
vt 0.414407 0.574907
vt 0.414407 0.578940
vt 0.414407 0.649696
vt 0.414407 0.574907
vt 0.569584 0.578940
vt 0.569584 0.649696
vt 0.551718 0.612614
vt 0.551718 0.600182
vt 0.558289 0.600182
vt 0.558289 0.612614
vt 0.581612 0.475218
vt 0.581612 0.475218
vt 0.581612 0.628511
vt 0.581612 0.628511
vt 0.580742 0.475218
vt 0.566346 0.475218
vt 0.566346 0.628511
vt 0.580742 0.628511
vt 0.565476 0.628511
vt 0.565476 0.628511
vt 0.566346 0.628511
vt 0.580742 0.628511
vt 0.565476 0.475218
vt 0.565476 0.475218
vt 0.566346 0.475218
vt 0.580742 0.475218
vt 0.568717 0.574907
vt 0.568717 0.574907
vt 0.557580 0.613323
vt 0.552427 0.613323
vt 0.590172 0.597446
vt 0.590172 0.634026
vt 0.587224 0.634026
vt 0.587224 0.597446
vt 0.591393 0.597446
vt 0.591393 0.634026
vt 0.589747 0.592642
vt 0.590838 0.592642
vt 0.590838 0.638830
vt 0.589747 0.638830
vt 0.587113 0.592642
vt 0.587113 0.638830
vt 0.453934 0.597446
vt 0.456882 0.597446
vt 0.456882 0.634026
vt 0.453934 0.634026
vt 0.456992 0.638830
vt 0.452713 0.597446
vt 0.452713 0.634026
vt 0.454359 0.592642
vt 0.453268 0.592642
vt 0.453268 0.638830
vt 0.454359 0.638830
vt 0.456992 0.592642
vt 0.590172 0.597446
vt 0.587224 0.597446
vt 0.587224 0.634026
vt 0.590172 0.634026
vt 0.591393 0.597446
vt 0.591393 0.634026
vt 0.589747 0.592642
vt 0.590838 0.592642
vt 0.590838 0.638830
vt 0.589747 0.638830
vt 0.587113 0.592642
vt 0.587113 0.638830
vt 0.453934 0.597446
vt 0.453934 0.634026
vt 0.456882 0.634026
vt 0.456882 0.597446
vt 0.452713 0.597446
vt 0.452713 0.634026
vt 0.454359 0.592642
vt 0.453268 0.592642
vt 0.453268 0.638830
vt 0.454359 0.638830
vt 0.456992 0.592642
vt 0.456992 0.638830
vn 0.0000 0.0000 1.0000
vn 0.0000 0.0000 -1.0000
vn -1.0000 0.0000 0.0000
vn 0.0000 1.0000 0.0000
vn 1.0000 0.0000 0.0000
vn 0.0000 -1.0000 0.0000
vn -0.7071 -0.7071 0.0000
vn 0.0000 -0.7071 -0.7071
vn 0.0000 -0.7071 0.7071
vn -0.7071 0.0000 -0.7071
vn 0.7071 0.0000 -0.7071
vn 0.7071 0.0000 0.7071
vn -0.7071 0.0000 0.7071
vn 0.7071 -0.7071 0.0000
vn -0.3827 0.0000 0.9239
vn -0.9239 0.0000 0.3827
vn -0.6533 0.7071 0.2706
vn -0.6533 -0.7071 0.2706
vn -0.2706 0.7071 0.6533
vn -0.2706 -0.7071 0.6533
vn 0.3827 0.0000 0.9239
vn 0.9239 0.0000 0.3827
vn 0.6533 0.7071 0.2706
vn 0.6533 -0.7071 0.2706
vn 0.2706 0.7071 0.6533
vn 0.2706 -0.7071 0.6533
vn 0.0000 0.7071 0.7071
vn -0.3827 0.0000 -0.9239
vn -0.9239 0.0000 -0.3827
vn -0.6533 0.7071 -0.2706
vn -0.6533 -0.7071 -0.2706
vn -0.2706 0.7071 -0.6533
vn -0.2706 -0.7071 -0.6533
vn 0.3827 0.0000 -0.9239
vn 0.9239 0.0000 -0.3827
vn 0.6533 0.7071 -0.2706
vn 0.6533 -0.7071 -0.2706
vn 0.2706 0.7071 -0.6533
vn 0.2706 -0.7071 -0.6533
vn 0.7071 0.7071 0.0000
vn 0.0000 0.7071 -0.7071
vn -0.7071 0.7071 0.0000
usemtl wood
s off
f 39/1/1 31/2/1 1/3/1 6/4/1
f 8/5/2 2/6/2 32/7/2 42/8/2
f 6/4/3 1/3/3 2/6/3 8/5/3
f 32/7/4 2/6/4 1/3/4 31/2/4
f 12/9/1 4/10/1 3/11/1 10/12/1
f 17/13/3 14/14/3 23/15/3 22/16/3
f 13/17/1 16/18/1 25/19/1 24/20/1
f 23/15/4 24/20/4 25/19/4 26/21/4 27/22/4 28/23/4 21/24/4 22/16/4
f 15/25/5 20/26/5 27/22/5 26/21/5
f 19/27/2 18/28/2 21/24/2 28/23/2
f 13/17/6 14/14/6 17/13/6 18/28/6 19/27/6 20/26/6 15/25/6 16/18/6
f 7/29/7 5/30/7 6/4/7 8/5/7
f 41/31/8 7/29/8 8/5/8 42/8/8
f 5/30/9 40/32/9 39/1/9 6/4/9
f 9/33/9 11/34/9 12/9/9 10/12/9
f 17/13/10 22/16/10 21/24/10 18/28/10
f 27/22/11 20/26/11 19/27/11 28/23/11
f 15/25/12 26/21/12 25/19/12 16/18/12
f 23/15/13 14/14/13 13/17/13 24/20/13
f 7/29/6 41/31/6 40/32/6 5/30/6
f 41/31/3 40/32/3 39/1/3 31/2/3 32/7/3 42/8/3
f 116/35/6 113/36/6 43/37/6 45/38/6
f 36/39/5 38/40/5 30/41/5 29/42/5
f 44/43/5 114/44/5 101/45/5 33/46/5
f 46/47/1 44/43/1 33/46/1 34/48/1
f 51/49/5 56/50/5 57/51/5 48/52/5
f 115/53/3 46/47/3 34/48/3 102/54/3
f 34/48/4 33/46/4 101/45/4 102/54/4
f 47/55/1 58/56/1 59/57/1 50/58/1
f 57/51/4 56/50/4 55/59/4 62/60/4 61/61/4 60/62/4 59/57/4 58/56/4
f 49/63/3 60/62/3 61/61/3 54/64/3
f 53/65/2 62/60/2 55/59/2 52/66/2
f 47/55/6 50/58/6 49/63/6 54/64/6 53/65/6 52/66/6 51/49/6 48/52/6
f 37/67/14 38/40/14 36/39/14 35/68/14
f 45/38/7 46/47/7 115/53/7 116/35/7
f 43/37/9 44/43/9 46/47/9 45/38/9
f 113/36/14 114/44/14 44/43/14 43/37/14
f 51/49/11 52/66/11 55/59/11 56/50/11
f 61/61/10 62/60/10 53/65/10 54/64/10
f 49/63/13 50/58/13 59/57/13 60/62/13
f 57/51/12 58/56/12 47/55/12 48/52/12
f 76/69/6 73/70/6 77/71/6 79/72/6
f 70/73/3 72/74/3 64/75/3 63/76/3
f 78/77/3 74/78/3 65/79/3 67/80/3
f 80/81/2 78/77/2 67/80/2 68/82/2
f 85/83/3 90/84/3 91/85/3 82/86/3
f 75/87/5 80/81/5 68/82/5 66/88/5
f 73/70/1 76/69/1 75/87/1 66/88/1 65/79/1 74/78/1
f 68/82/4 67/80/4 65/79/4 66/88/4
f 81/89/2 92/90/2 93/91/2 84/92/2
f 91/85/4 90/84/4 89/93/4 96/94/4 95/95/4 94/96/4 93/91/4 92/90/4
f 83/97/5 94/96/5 95/95/5 88/98/5
f 87/99/1 96/94/1 89/93/1 86/100/1
f 81/89/6 84/92/6 83/97/6 88/98/6 87/99/6 86/100/6 85/83/6 82/86/6
f 71/101/7 72/74/7 70/73/7 69/102/7
f 79/72/14 80/81/14 75/87/14 76/69/14
f 77/71/8 78/77/8 80/81/8 79/72/8
f 73/70/7 74/78/7 78/77/7 77/71/7
f 85/83/13 86/100/13 89/93/13 90/84/13
f 95/95/12 96/94/12 87/99/12 88/98/12
f 83/97/11 84/92/11 93/91/11 94/96/11
f 91/85/10 92/90/10 81/89/10 82/86/10
f 109/103/2 99/104/2 97/105/2 106/106/2
f 111/107/3 112/108/3 100/109/3 99/104/3 109/103/3 110/110/3
f 108/111/1 98/112/1 100/109/1 112/108/1
f 106/106/5 97/105/5 98/112/5 108/111/5
f 100/109/4 98/112/4 97/105/4 99/104/4
f 120/113/2 104/114/2 103/115/2 118/116/2
f 125/117/5 122/118/5 131/119/5 130/120/5
f 113/36/1 114/44/1 101/45/1 102/54/1 115/53/1 116/35/1
f 121/121/2 124/122/2 133/123/2 132/124/2
f 131/119/4 132/124/4 133/123/4 134/125/4 135/126/4 136/127/4 129/128/4 130/120/4
f 123/129/3 128/130/3 135/126/3 134/125/3
f 127/131/1 126/132/1 129/128/1 136/127/1
f 121/121/6 122/118/6 125/117/6 126/132/6 127/131/6 128/130/6 123/129/6 124/122/6
f 107/133/14 105/134/14 106/106/14 108/111/14
f 111/107/9 107/133/9 108/111/9 112/108/9
f 105/134/8 110/110/8 109/103/8 106/106/8
f 117/135/8 119/136/8 120/113/8 118/116/8
f 125/117/12 130/120/12 129/128/12 126/132/12
f 135/126/13 128/130/13 127/131/13 136/127/13
f 123/129/10 134/125/10 133/123/10 124/122/10
f 131/119/11 122/118/11 121/121/11 132/124/11
f 107/133/6 111/107/6 110/110/6 105/134/6
f 148/137/15 142/138/15 138/139/15 146/140/15
f 144/141/16 140/142/16 142/138/16 148/137/16
f 147/143/17 143/144/17 144/141/17 148/137/17
f 139/145/18 141/146/18 142/138/18 140/142/18
f 145/147/19 147/143/19 148/137/19 146/140/19
f 141/146/20 137/148/20 138/139/20 142/138/20
f 160/149/21 158/150/21 150/151/21 154/152/21
f 138/139/9 137/148/9 149/153/9 150/151/9
f 156/154/22 160/149/22 154/152/22 152/155/22
f 159/156/23 160/149/23 156/154/23 155/157/23
f 151/158/24 152/155/24 154/152/24 153/159/24
f 157/160/25 158/150/25 160/149/25 159/156/25
f 153/159/26 154/152/26 150/151/26 149/153/26
f 138/139/1 150/151/1 158/150/1 146/140/1
f 145/147/27 146/140/27 158/150/27 157/160/27
f 172/161/28 170/162/28 162/163/28 166/164/28
f 168/165/29 172/161/29 166/164/29 164/166/29
f 171/167/30 172/161/30 168/165/30 167/168/30
f 163/169/31 164/166/31 166/164/31 165/170/31
f 169/171/32 170/162/32 172/161/32 171/167/32
f 165/170/33 166/164/33 162/163/33 161/172/33
f 184/173/34 178/174/34 174/175/34 182/176/34
f 180/177/35 176/178/35 178/174/35 184/173/35
f 183/179/36 179/180/36 180/177/36 184/173/36
f 175/181/37 177/182/37 178/174/37 176/178/37
f 181/183/38 183/179/38 184/173/38 182/176/38
f 177/182/39 173/184/39 174/175/39 178/174/39
f 156/154/5 152/155/5 176/178/5 180/177/5
f 156/154/40 180/177/40 179/180/40 155/157/40
f 151/158/14 175/181/14 176/178/14 152/155/14
f 162/163/2 170/162/2 182/176/2 174/175/2
f 169/171/41 181/183/41 182/176/41 170/162/41
f 162/163/8 174/175/8 173/184/8 161/172/8
f 144/141/3 168/165/3 164/166/3 140/142/3
f 144/141/42 143/144/42 167/168/42 168/165/42
f 139/145/7 140/142/7 164/166/7 163/169/7
f 139/145/6 163/169/6 165/170/6 161/172/6 173/184/6 177/182/6 175/181/6 151/158/6 153/159/6 149/153/6 137/148/6 141/146/6
f 147/143/4 145/147/4 157/160/4 159/156/4 155/157/4 179/180/4 183/179/4 181/183/4 169/171/4 171/167/4 167/168/4 143/144/4
